<?xml version="1.0" encoding="UTF-8" standalone="no"?>
<!-- Created with Inkscape (http://www.inkscape.org/) -->

<svg
   version="1.0"
   width="158.0938"
   height="152.57619"
   id="svg7217"
   xmlns="http://www.w3.org/2000/svg"
   xmlns:svg="http://www.w3.org/2000/svg">
  <defs
     id="defs7219" />
  <path
     id="path10"
     style="fill:#be372f;fill-rule:evenodd;stroke:none"
     d="M 41.4395,0 V 58.79688 H 0 c 1.0765,15.33843 14.1283,18.56863 19.6446,28.39062 2.1527,6.59281 7.5337,20.72071 16.2793,20.72071 7.6694,0 7.6704,-9.82227 17.4921,-9.82227 9.8222,0 14.1275,18.56764 22.8731,33.77149 6.5929,11.97475 17.4902,19.64239 27.1777,20.71875 7.669,0 12.1094,-2.15235 12.1094,-2.15235 -2.2874,-4.30553 -3.3633,-8.74482 -3.3633,-15.20312 0,-9.82195 7.6686,-19.64351 16.4141,-26.23633 11.9749,-8.74558 22.8742,-11.97637 27.3144,-13.05273 0,0 2.1524,-6.59209 2.1524,-16.41407 V 65.39063 c 0,0 -8.7461,-2.15376 -8.7461,-17.49219 V 32.69532 c -4.3055,-2.15276 -18.5685,-3.36328 -30.543,-3.36328 l -3.2285,18.5664 h 11.9746 l -4.4394,17.49219 h -11.9747 l -5.3828,22.87305 c -1.0762,5.51645 1.0757,5.51562 3.2285,5.51562 h 7.67 l -4.4395,14.12891 c 0,0 -9.8224,5.38086 -20.7207,5.38086 -7.5348,0 -13.0503,-3.22903 -15.2031,-11.97461 -1.0765,-3.22913 0,-10.89783 0,-14.12696 L 80.5938,65.39063 H 68.6192 L 73.0586,47.89844 H 85.0332 L 89.3399,28.25586 C 85.0344,27.17949 81.8046,26.10176 80.5938,25.0254 V 0 Z m 64.3144,15.20313 c -4.4398,0 -8.7461,3.22964 -8.7461,8.74609 0,4.30554 4.3063,7.66993 8.7461,7.66993 4.3058,0 8.7461,-3.36439 8.7461,-7.66993 0,-5.51645 -4.4403,-8.74609 -8.7461,-8.74609 z M 94.8555,35.92383 82.8809,92.70313 H 98.084 l 11.9766,-56.7793 z" />
</svg>
